<mxfile host="app.diagrams.net" agent="Mozilla/5.0 (Windows NT 10.0; Win64; x64) AppleWebKit/537.36 (KHTML, like Gecko) Chrome/129.0.0.0 Safari/537.36" version="24.7.17">
  <diagram id="C5RBs43oDa-KdzZeNtuy" name="Page-1">
    <mxGraphModel dx="1075" dy="544" grid="1" gridSize="10" guides="1" tooltips="1" connect="1" arrows="1" fold="1" page="1" pageScale="1" pageWidth="827" pageHeight="1169" math="0" shadow="0">
      <root>
        <mxCell id="WIyWlLk6GJQsqaUBKTNV-0" />
        <mxCell id="WIyWlLk6GJQsqaUBKTNV-1" parent="WIyWlLk6GJQsqaUBKTNV-0" />
        <mxCell id="bv5ezYy26gah9_3ZjvsL-4" value="oui" style="edgeStyle=orthogonalEdgeStyle;rounded=0;orthogonalLoop=1;jettySize=auto;html=1;entryX=0;entryY=0.5;entryDx=0;entryDy=0;" edge="1" parent="WIyWlLk6GJQsqaUBKTNV-1" source="WIyWlLk6GJQsqaUBKTNV-10" target="bv5ezYy26gah9_3ZjvsL-3">
          <mxGeometry relative="1" as="geometry">
            <Array as="points">
              <mxPoint x="230" y="373" />
            </Array>
          </mxGeometry>
        </mxCell>
        <mxCell id="bv5ezYy26gah9_3ZjvsL-5" value="non" style="edgeStyle=orthogonalEdgeStyle;rounded=0;orthogonalLoop=1;jettySize=auto;html=1;" edge="1" parent="WIyWlLk6GJQsqaUBKTNV-1" source="WIyWlLk6GJQsqaUBKTNV-10" target="bv5ezYy26gah9_3ZjvsL-2">
          <mxGeometry relative="1" as="geometry" />
        </mxCell>
        <mxCell id="WIyWlLk6GJQsqaUBKTNV-10" value="flag -hardmode?" style="rhombus;whiteSpace=wrap;html=1;shadow=0;fontFamily=Helvetica;fontSize=12;align=center;strokeWidth=1;spacing=6;spacingTop=-4;" parent="WIyWlLk6GJQsqaUBKTNV-1" vertex="1">
          <mxGeometry x="170" y="260" width="120" height="50" as="geometry" />
        </mxCell>
        <mxCell id="bv5ezYy26gah9_3ZjvsL-10" value="" style="edgeStyle=orthogonalEdgeStyle;rounded=0;orthogonalLoop=1;jettySize=auto;html=1;" edge="1" parent="WIyWlLk6GJQsqaUBKTNV-1" source="WIyWlLk6GJQsqaUBKTNV-12" target="bv5ezYy26gah9_3ZjvsL-9">
          <mxGeometry relative="1" as="geometry" />
        </mxCell>
        <mxCell id="WIyWlLk6GJQsqaUBKTNV-12" value="&lt;div style=&quot;background-color: rgb(0, 0, 0); font-family: Consolas, &amp;quot;Courier New&amp;quot;, monospace; font-size: 14px; line-height: 19px; white-space: pre;&quot;&gt;&lt;div style=&quot;line-height: 19px;&quot;&gt;&lt;span style=&quot;color: rgb(220, 220, 170);&quot;&gt;readDictionaryWords&lt;/span&gt;&lt;font color=&quot;#ffffff&quot;&gt;(&lt;/font&gt;&lt;font color=&quot;#9cdcfe&quot;&gt;dictionaryPath&lt;/font&gt;&lt;font color=&quot;#ffffff&quot;&gt;) ([]&lt;/font&gt;&lt;span style=&quot;color: rgb(86, 156, 214);&quot;&gt;string)&lt;/span&gt;&lt;/div&gt;&lt;/div&gt;" style="rounded=1;whiteSpace=wrap;html=1;fontSize=12;glass=0;strokeWidth=1;shadow=0;" parent="WIyWlLk6GJQsqaUBKTNV-1" vertex="1">
          <mxGeometry x="750" y="310" width="370" height="35" as="geometry" />
        </mxCell>
        <mxCell id="bv5ezYy26gah9_3ZjvsL-6" value="" style="edgeStyle=orthogonalEdgeStyle;rounded=0;orthogonalLoop=1;jettySize=auto;html=1;" edge="1" parent="WIyWlLk6GJQsqaUBKTNV-1" source="bv5ezYy26gah9_3ZjvsL-1" target="WIyWlLk6GJQsqaUBKTNV-10">
          <mxGeometry relative="1" as="geometry" />
        </mxCell>
        <mxCell id="bv5ezYy26gah9_3ZjvsL-1" value="Initialisation" style="ellipse;whiteSpace=wrap;html=1;" vertex="1" parent="WIyWlLk6GJQsqaUBKTNV-1">
          <mxGeometry x="170" y="160" width="120" height="50" as="geometry" />
        </mxCell>
        <mxCell id="bv5ezYy26gah9_3ZjvsL-8" style="edgeStyle=orthogonalEdgeStyle;rounded=0;orthogonalLoop=1;jettySize=auto;html=1;entryX=0;entryY=0.5;entryDx=0;entryDy=0;" edge="1" parent="WIyWlLk6GJQsqaUBKTNV-1" source="bv5ezYy26gah9_3ZjvsL-2" target="WIyWlLk6GJQsqaUBKTNV-12">
          <mxGeometry relative="1" as="geometry">
            <mxPoint x="830" y="370" as="targetPoint" />
            <Array as="points">
              <mxPoint x="720" y="285" />
              <mxPoint x="720" y="328" />
            </Array>
          </mxGeometry>
        </mxCell>
        <mxCell id="bv5ezYy26gah9_3ZjvsL-2" value="&lt;div style=&quot;color: rgb(255, 255, 255); background-color: rgb(0, 0, 0); font-family: Consolas, &amp;quot;Courier New&amp;quot;, monospace; font-size: 14px; line-height: 19px; white-space: pre;&quot;&gt;&lt;span style=&quot;color: #9cdcfe;&quot;&gt;dictionaryPath&lt;/span&gt; &lt;span style=&quot;color: #d4d4d4;&quot;&gt;=&lt;/span&gt; &lt;span style=&quot;color: #ce9178;&quot;&gt;dictionnaire.txt&lt;/span&gt;&lt;/div&gt;" style="rounded=0;whiteSpace=wrap;html=1;" vertex="1" parent="WIyWlLk6GJQsqaUBKTNV-1">
          <mxGeometry x="380" y="272.5" width="280" height="25" as="geometry" />
        </mxCell>
        <mxCell id="bv5ezYy26gah9_3ZjvsL-7" style="edgeStyle=orthogonalEdgeStyle;rounded=0;orthogonalLoop=1;jettySize=auto;html=1;entryX=0;entryY=0.5;entryDx=0;entryDy=0;" edge="1" parent="WIyWlLk6GJQsqaUBKTNV-1" source="bv5ezYy26gah9_3ZjvsL-3" target="WIyWlLk6GJQsqaUBKTNV-12">
          <mxGeometry relative="1" as="geometry">
            <Array as="points">
              <mxPoint x="720" y="372" />
              <mxPoint x="720" y="328" />
            </Array>
          </mxGeometry>
        </mxCell>
        <mxCell id="bv5ezYy26gah9_3ZjvsL-3" value="&lt;div style=&quot;color: rgb(255, 255, 255); background-color: rgb(0, 0, 0); font-family: Consolas, &amp;quot;Courier New&amp;quot;, monospace; font-size: 14px; line-height: 19px; white-space: pre;&quot;&gt;&lt;span style=&quot;color: #9cdcfe;&quot;&gt;dictionaryPath&lt;/span&gt; &lt;span style=&quot;color: #d4d4d4;&quot;&gt;=&lt;/span&gt; &lt;span style=&quot;color: #ce9178;&quot;&gt;dictionnaire&lt;/span&gt;&lt;span style=&quot;color: rgb(206, 145, 120);&quot;&gt;_hardmode&lt;/span&gt;&lt;span style=&quot;color: rgb(206, 145, 120);&quot;&gt;.txt&lt;/span&gt;&lt;/div&gt;" style="rounded=0;whiteSpace=wrap;html=1;" vertex="1" parent="WIyWlLk6GJQsqaUBKTNV-1">
          <mxGeometry x="340" y="360" width="340" height="25" as="geometry" />
        </mxCell>
        <mxCell id="bv5ezYy26gah9_3ZjvsL-12" value="" style="edgeStyle=orthogonalEdgeStyle;rounded=0;orthogonalLoop=1;jettySize=auto;html=1;" edge="1" parent="WIyWlLk6GJQsqaUBKTNV-1" source="bv5ezYy26gah9_3ZjvsL-9" target="bv5ezYy26gah9_3ZjvsL-11">
          <mxGeometry relative="1" as="geometry" />
        </mxCell>
        <mxCell id="bv5ezYy26gah9_3ZjvsL-9" value="word = un mot aléatoire dans la liste de mots" style="rounded=0;whiteSpace=wrap;html=1;" vertex="1" parent="WIyWlLk6GJQsqaUBKTNV-1">
          <mxGeometry x="865" y="380" width="140" height="45" as="geometry" />
        </mxCell>
        <mxCell id="bv5ezYy26gah9_3ZjvsL-14" value="" style="edgeStyle=orthogonalEdgeStyle;rounded=0;orthogonalLoop=1;jettySize=auto;html=1;" edge="1" parent="WIyWlLk6GJQsqaUBKTNV-1" source="bv5ezYy26gah9_3ZjvsL-11" target="bv5ezYy26gah9_3ZjvsL-13">
          <mxGeometry relative="1" as="geometry" />
        </mxCell>
        <mxCell id="bv5ezYy26gah9_3ZjvsL-11" value="wordRunes = tableau avec lettres de word" style="rounded=0;whiteSpace=wrap;html=1;" vertex="1" parent="WIyWlLk6GJQsqaUBKTNV-1">
          <mxGeometry x="866.25" y="470" width="137.5" height="40" as="geometry" />
        </mxCell>
        <mxCell id="bv5ezYy26gah9_3ZjvsL-19" value="" style="edgeStyle=orthogonalEdgeStyle;rounded=0;orthogonalLoop=1;jettySize=auto;html=1;" edge="1" parent="WIyWlLk6GJQsqaUBKTNV-1" source="bv5ezYy26gah9_3ZjvsL-13" target="bv5ezYy26gah9_3ZjvsL-15">
          <mxGeometry relative="1" as="geometry" />
        </mxCell>
        <mxCell id="bv5ezYy26gah9_3ZjvsL-13" value="blanks = tableau avec underscores même longueur wordRunes" style="rounded=0;whiteSpace=wrap;html=1;" vertex="1" parent="WIyWlLk6GJQsqaUBKTNV-1">
          <mxGeometry x="690" y="465" width="132.5" height="50" as="geometry" />
        </mxCell>
        <mxCell id="bv5ezYy26gah9_3ZjvsL-20" value="" style="edgeStyle=orthogonalEdgeStyle;rounded=0;orthogonalLoop=1;jettySize=auto;html=1;" edge="1" parent="WIyWlLk6GJQsqaUBKTNV-1" source="bv5ezYy26gah9_3ZjvsL-15" target="bv5ezYy26gah9_3ZjvsL-17">
          <mxGeometry relative="1" as="geometry" />
        </mxCell>
        <mxCell id="bv5ezYy26gah9_3ZjvsL-15" value="calculer nombre de lettres à révéler" style="rounded=0;whiteSpace=wrap;html=1;" vertex="1" parent="WIyWlLk6GJQsqaUBKTNV-1">
          <mxGeometry x="530" y="467.5" width="112.5" height="45" as="geometry" />
        </mxCell>
        <mxCell id="bv5ezYy26gah9_3ZjvsL-21" value="" style="edgeStyle=orthogonalEdgeStyle;rounded=0;orthogonalLoop=1;jettySize=auto;html=1;" edge="1" parent="WIyWlLk6GJQsqaUBKTNV-1" source="bv5ezYy26gah9_3ZjvsL-17" target="bv5ezYy26gah9_3ZjvsL-18">
          <mxGeometry relative="1" as="geometry" />
        </mxCell>
        <mxCell id="bv5ezYy26gah9_3ZjvsL-17" value="sélectionner des indices aléatoires pour révéler les lettres" style="rounded=0;whiteSpace=wrap;html=1;" vertex="1" parent="WIyWlLk6GJQsqaUBKTNV-1">
          <mxGeometry x="370" y="460" width="120" height="60" as="geometry" />
        </mxCell>
        <mxCell id="bv5ezYy26gah9_3ZjvsL-18" value="révéler les lettres aux indices choisis" style="rounded=0;whiteSpace=wrap;html=1;" vertex="1" parent="WIyWlLk6GJQsqaUBKTNV-1">
          <mxGeometry x="210" y="467.5" width="120" height="45" as="geometry" />
        </mxCell>
      </root>
    </mxGraphModel>
  </diagram>
</mxfile>
